<svg width="178" height="82" viewBox="0 0 178 82" fill="none" xmlns="http://www.w3.org/2000/svg">
<path d="M81.392 57.32C81.2 54.488 80.984 51.536 80.744 48.464C80.504 45.344 80.264 42.368 80.024 39.536C79.832 36.704 79.664 34.304 79.52 32.336C79.376 30.32 79.256 29.024 79.16 28.448C79.016 27.344 79.064 26.6 79.304 26.216C79.592 25.784 79.736 25.568 79.736 25.568C79.736 25.568 79.568 25.4 79.232 25.064C78.896 24.68 78.728 24.272 78.728 23.84C78.728 23.072 79.184 22.448 80.096 21.968C81.056 21.488 82.136 21.128 83.336 20.888C84.536 20.648 85.592 20.48 86.504 20.384C87.464 20.288 87.944 20.24 87.944 20.24C87.944 20.24 88.424 20.216 89.384 20.168C90.344 20.12 91.568 20.168 93.056 20.312C94.592 20.456 96.224 20.84 97.952 21.464C99.728 22.04 101.408 22.976 102.992 24.272C104.624 25.568 105.992 27.344 107.096 29.6C108.2 31.808 108.872 34.64 109.112 38.096C109.4 42.176 109.208 45.608 108.536 48.392C107.912 51.176 106.952 53.456 105.656 55.232C104.408 56.96 102.968 58.304 101.336 59.264C99.704 60.224 98 60.896 96.224 61.28C94.496 61.616 92.84 61.832 91.256 61.928C89.72 61.976 88.376 62 87.224 62C85.544 62 84.272 61.76 83.408 61.28C82.592 60.8 82.04 60.272 81.752 59.696C81.512 59.072 81.392 58.52 81.392 58.04C81.392 57.56 81.392 57.32 81.392 57.32ZM89.096 26.72L92.264 55.88C92.264 55.88 92.48 55.856 92.912 55.808C93.344 55.76 93.872 55.544 94.496 55.16C95.168 54.776 95.792 54.08 96.368 53.072C96.992 52.064 97.472 50.648 97.808 48.824C98.144 46.952 98.216 44.528 98.024 41.552C97.832 37.808 97.424 34.904 96.8 32.84C96.224 30.728 95.504 29.216 94.64 28.304C93.824 27.392 92.936 26.864 91.976 26.72C91.016 26.576 90.056 26.576 89.096 26.72ZM112.691 41.048C112.691 37.208 113.363 33.704 114.707 30.536C116.051 27.32 117.875 24.776 120.179 22.904C122.483 20.984 125.027 20.024 127.811 20.024C129.875 20.024 131.843 20.576 133.715 21.68C135.587 22.736 137.243 24.248 138.683 26.216C140.123 28.136 141.251 30.368 142.067 32.912C142.883 35.456 143.291 38.168 143.291 41.048C143.291 43.928 142.883 46.64 142.067 49.184C141.251 51.728 140.123 53.984 138.683 55.952C137.243 57.872 135.587 59.384 133.715 60.488C131.843 61.544 129.875 62.072 127.811 62.072C125.027 62.072 122.483 61.136 120.179 59.264C117.875 57.344 116.051 54.8 114.707 51.632C113.363 48.464 112.691 44.936 112.691 41.048ZM123.707 40.76C123.707 43.544 123.899 46.112 124.283 48.464C124.667 50.768 125.195 52.616 125.867 54.008C126.539 55.352 127.283 56.024 128.099 56.024C128.915 56.024 129.659 55.352 130.331 54.008C131.003 52.616 131.531 50.768 131.915 48.464C132.299 46.112 132.491 43.544 132.491 40.76C132.491 37.928 132.299 35.36 131.915 33.056C131.531 30.752 131.003 28.904 130.331 27.512C129.659 26.12 128.915 25.424 128.099 25.424C127.283 25.424 126.539 26.12 125.867 27.512C125.195 28.904 124.667 30.752 124.283 33.056C123.899 35.36 123.707 37.928 123.707 40.76ZM146.647 25.496C146.647 25.496 146.599 25.304 146.503 24.92C146.407 24.488 146.431 23.984 146.575 23.408C146.767 22.832 147.199 22.304 147.871 21.824C148.591 21.344 149.719 21.032 151.255 20.888C152.791 20.744 154.519 20.624 156.439 20.528C158.407 20.432 160.279 20.336 162.055 20.24C163.879 20.144 165.367 20.072 166.519 20.024C167.671 19.976 168.247 19.952 168.247 19.952C168.247 19.952 168.559 19.976 169.183 20.024C169.855 20.024 170.623 20.12 171.487 20.312C172.399 20.456 173.215 20.768 173.935 21.248C174.655 21.68 175.087 22.328 175.231 23.192C175.375 24.056 175.207 24.728 174.727 25.208C174.247 25.688 173.671 26.048 172.999 26.288C172.327 26.48 171.727 26.6 171.199 26.648C170.671 26.696 170.407 26.72 170.407 26.72L158.887 27.368C158.887 27.368 158.959 27.68 159.103 28.304C159.247 28.928 159.391 29.648 159.535 30.464C159.727 31.232 159.847 31.904 159.895 32.48C159.943 33.008 159.991 33.704 160.039 34.568C160.087 35.384 160.135 36.128 160.183 36.8C160.231 37.424 160.255 37.736 160.255 37.736H165.583C165.583 37.736 165.847 37.76 166.375 37.808C166.903 37.808 167.503 37.904 168.175 38.096C168.895 38.24 169.519 38.48 170.047 38.816C170.575 39.152 170.863 39.656 170.911 40.328C170.959 41.192 170.623 41.84 169.903 42.272C169.231 42.704 168.511 42.992 167.743 43.136C167.023 43.232 166.567 43.304 166.375 43.352C166.231 43.352 165.847 43.376 165.223 43.424C164.599 43.424 163.903 43.424 163.135 43.424C162.415 43.424 161.767 43.424 161.191 43.424C160.615 43.424 160.327 43.424 160.327 43.424C160.327 43.424 160.327 43.784 160.327 44.504C160.375 45.176 160.423 45.968 160.471 46.88C160.519 47.792 160.519 48.584 160.471 49.256C160.471 49.88 160.447 50.648 160.399 51.56C160.351 52.424 160.303 53.192 160.255 53.864C160.207 54.488 160.183 54.8 160.183 54.8L169.903 54.44C169.903 54.44 170.215 54.44 170.839 54.44C171.463 54.392 172.207 54.44 173.071 54.584C173.935 54.728 174.703 55.016 175.375 55.448C176.047 55.88 176.407 56.528 176.455 57.392C176.551 58.256 176.311 58.952 175.735 59.48C175.159 60.008 174.487 60.392 173.719 60.632C172.951 60.872 172.255 61.04 171.631 61.136C171.055 61.184 170.767 61.208 170.767 61.208L155.215 62C155.215 62 154.831 62 154.062 62C153.343 62.048 152.503 62 151.543 61.856C150.583 61.664 149.743 61.304 149.023 60.776C148.303 60.2 147.967 59.336 148.015 58.184C148.111 56.648 148.207 54.248 148.303 50.984C148.399 47.672 148.351 43.808 148.159 39.392C147.967 34.976 147.463 30.344 146.647 25.496Z" fill="white"/>
<path fill-rule="evenodd" clip-rule="evenodd" d="M25.9153 0.310688C25.6146 0.487291 25.3689 0.780684 25.3689 0.962953C25.3689 1.14522 27.419 14.1619 22.0124 21.2449C17.9534 29.9019 4.17797 36.8483 1.32291 45.4552C0.379033 48.301 0.147981 49.507 0.0268344 52.2234C-0.562349 65.4239 8.60887 77.6394 21.7991 81.2227C25.6134 82.2591 32.347 82.2591 36.1612 81.2227C47.0694 78.2592 55.1837 69.6133 57.4652 58.5225C58.3803 54.0741 58.128 50.0104 56.6543 45.4552C54.5205 38.8598 49.6618 29.7631 42.6756 19.2831C39.2189 14.0974 29.3749 1.80599 28.2034 0.624858C27.4961 -0.0881642 26.7652 -0.18827 25.9153 0.310688Z" fill="#B81C42"/>
<ellipse cx="18.1093" cy="48.1646" rx="7.49359" ry="7.5552" fill="white"/>
<ellipse cx="18.1094" cy="48.1644" rx="5.62019" ry="5.6664" fill="#70142B"/>
<ellipse cx="15.6117" cy="45.3312" rx="1.8734" ry="1.8888" fill="white"/>
<ellipse cx="18.1094" cy="50.9977" rx="2.81009" ry="2.8332" fill="white"/>
<ellipse cx="21.2316" cy="46.2759" rx="0.936698" ry="0.944401" fill="white"/>
<ellipse cx="39.3412" cy="48.1646" rx="7.49359" ry="7.5552" fill="white"/>
<ellipse cx="39.3414" cy="48.1644" rx="5.62019" ry="5.6664" fill="#70142B"/>
<ellipse cx="36.8436" cy="45.3312" rx="1.8734" ry="1.8888" fill="white"/>
<ellipse cx="39.3413" cy="50.9977" rx="2.8101" ry="2.8332" fill="white"/>
<ellipse cx="42.4636" cy="46.2759" rx="0.936697" ry="0.944401" fill="white"/>
<path d="M36.5313 61.7009C36.5313 63.2872 35.7254 64.8086 34.2908 65.9303C32.8562 67.052 30.9105 67.6821 28.8816 67.6821C26.8528 67.6821 24.9071 67.052 23.4725 65.9303C22.0379 64.8086 21.2319 63.2872 21.2319 61.7009L28.8816 61.7009H36.5313Z" fill="black"/>
<path d="M22.793 61.7007H34.97V61.7007C34.97 63.0916 33.8425 64.2191 32.4516 64.2191H25.3114C23.9205 64.2191 22.793 63.0916 22.793 61.7007V61.7007Z" fill="white"/>
<path d="M5.62012 59.8121C5.62012 58.769 6.46576 57.9233 7.50891 57.9233H15.9084C16.9515 57.9233 17.7972 58.769 17.7972 59.8121V59.8121C17.7972 60.8553 16.9515 61.7009 15.9084 61.7009H7.50892C6.46576 61.7009 5.62012 60.8553 5.62012 59.8121V59.8121Z" fill="#EC99AE"/>
<path d="M39.6533 59.8121C39.6533 58.769 40.499 57.9233 41.5421 57.9233H49.9416C50.9848 57.9233 51.8304 58.769 51.8304 59.8121V59.8121C51.8304 60.8553 50.9848 61.7009 49.9416 61.7009H41.5421C40.499 61.7009 39.6533 60.8553 39.6533 59.8121V59.8121Z" fill="#EC99AE"/>
</svg>
