<svg width="352" height="372" viewBox="0 0 352 372" fill="none" xmlns="http://www.w3.org/2000/svg">
<path d="M257 300.013C254.696 261.868 210.913 248.562 204 248.562V245.013H257V300.013Z" fill="#F6C3D6" stroke="#F6C3D6" stroke-width="10"/>
<path d="M257 300.013C259.304 261.868 303.087 248.562 310 248.562V245.013H257V300.013Z" fill="#F6C3D6" stroke="#F6C3D6" stroke-width="10"/>
<path fill-rule="evenodd" clip-rule="evenodd" d="M210.959 14C210.959 6.268 217.227 0 224.959 0H288.575C296.307 0 302.575 6.26801 302.575 14V26.5205H338C345.732 26.5205 352 32.7886 352 40.5205V248.795C352 256.527 345.732 262.795 338 262.795H175.534C167.802 262.795 161.534 256.527 161.534 248.795V40.5206C161.534 32.7886 167.802 26.5205 175.534 26.5205H210.959V14ZM245.452 7.23288C237.72 7.23288 231.452 13.5648 231.452 21.2968C231.452 23.5059 233.243 25.3151 235.452 25.3151H278.082C280.291 25.3151 282.082 23.5059 282.082 21.2968C282.082 13.5648 275.814 7.23288 268.082 7.23288H245.452Z" fill="#F7C3D6"/>
<path d="M182 83.0132H332V223.013C332 230.745 325.732 237.013 318 237.013H196C188.268 237.013 182 230.745 182 223.013V83.0132Z" fill="#F04985"/>
<path d="M275.065 159.941C275.065 163.629 273.175 167.166 269.813 169.774C266.45 172.382 261.889 173.847 257.133 173.847C252.377 173.847 247.816 172.382 244.454 169.774C241.091 167.166 239.202 163.629 239.202 159.941L257.133 159.941H275.065Z" fill="black"/>
<path d="M242.861 159.941H271.405C271.405 163.175 268.784 165.797 265.55 165.797H248.717C245.483 165.797 242.861 163.175 242.861 159.941Z" fill="white"/>
<path d="M195.288 155.55C195.288 153.125 197.254 151.159 199.679 151.159H219.44C221.866 151.159 223.832 153.125 223.832 155.55C223.832 157.975 221.866 159.941 219.44 159.941H199.679C197.254 159.941 195.288 157.975 195.288 155.55Z" fill="#F6C3D6"/>
<path d="M289.703 155.55C289.703 153.125 291.669 151.159 294.094 151.159H313.855C316.281 151.159 318.247 153.125 318.247 155.55C318.247 157.975 316.281 159.941 313.855 159.941H294.094C291.669 159.941 289.703 157.975 289.703 155.55Z" fill="#F6C3D6"/>
<path d="M332 70.2568V100.375V110.013H182V64.2331C182 61.8236 250.75 79.8947 278.25 85.316C300.25 89.6531 322.417 77.0836 332 70.2568Z" fill="#C02E63"/>
<path d="M182 70.2222V100.367V110.013H332V64.1933C332 61.7817 270.743 84.2937 243.243 89.7197C221.243 94.0605 191.583 77.055 182 70.2222Z" fill="#F04985"/>
<circle cx="230.419" cy="128.47" r="17.5656" fill="white"/>
<circle cx="230.419" cy="128.47" r="13.1742" fill="#C02E63"/>
<circle cx="224.563" cy="121.883" r="4.39139" fill="white"/>
<circle cx="230.419" cy="135.057" r="6.58708" fill="white"/>
<circle cx="237.738" cy="124.079" r="2.19569" fill="white"/>
<circle cx="283.847" cy="128.47" r="17.5656" fill="white"/>
<circle cx="283.847" cy="128.47" r="13.1742" fill="#C02E63"/>
<circle cx="277.992" cy="121.883" r="4.39139" fill="white"/>
<circle cx="283.847" cy="135.057" r="6.58708" fill="white"/>
<circle cx="291.166" cy="124.079" r="2.19569" fill="white"/>
<path d="M75.022 190.112L73.8071 192.478L69.7662 200.346L62.6642 195.073L59.964 193.068C59.9639 193.068 59.9639 193.068 59.9639 193.068C55.3988 189.678 49.5116 187.434 44.9288 187.07L44.9286 187.07C43.6031 186.964 41.4813 187.065 39.1785 187.412C36.8306 187.765 35.002 188.268 34.1343 188.642L31.3049 182.078L34.1342 188.642C29.3953 190.684 23.776 195.946 20.7817 201.627M75.022 190.112L121.32 188.633C125.759 194.371 128.105 199.497 130.032 208.365C132.012 217.476 131.867 223.03 129.844 230.07C128.937 233.228 126.623 237.986 122.79 243.964C119.03 249.829 114.061 256.481 108.207 263.362C104.893 267.259 99.299 273.304 94.3433 278.449C91.9509 280.933 89.7602 283.152 88.096 284.773C87.7558 284.651 87.4027 284.523 87.0417 284.389L87.0408 284.389C70.6383 278.308 57.2615 272.384 46.9451 266.71C36.517 260.974 29.7081 255.756 25.9576 251.279C21.643 246.127 17.6431 236.556 16.6412 228.161C15.4623 218.283 17.1369 208.542 20.7817 201.627M75.022 190.112C77.4066 185.468 80.8469 181.628 85.2549 178.711L75.022 190.112ZM20.7817 201.627L14.1562 198.135L20.7817 201.627ZM105.727 176.9L105.727 176.9C102.14 175.637 100.619 175.288 99.3291 175.215C98.0241 175.141 96.4283 175.321 92.6318 176.172L105.727 176.9ZM105.727 176.9C111.679 178.995 116.694 182.652 121.32 188.633L105.727 176.9ZM87.4138 177.497C86.9067 177.682 86.5507 177.853 85.2552 178.711L87.4138 177.497ZM87.4138 177.497C88.2123 177.206 89.4539 176.885 92.6312 176.173L87.4138 177.497ZM91.2605 285.819C91.2662 285.82 91.2637 285.82 91.2521 285.817C91.2558 285.818 91.2586 285.818 91.2605 285.819Z" stroke="#F04985" stroke-width="15"/>
<path d="M80.7671 283.89C110.301 299.562 146.104 373.458 192.877 362.849C251.342 349.589 258.575 347.178 258.575 230.247" stroke="#F04985" stroke-width="15"/>
<path d="M93.4248 283.891C63.8906 299.562 81.9728 315.836 37.9728 329.096" stroke="#F04985" stroke-width="15"/>
<path d="M259 261.013C257.522 239.513 229.435 232.013 225 232.013V230.013H259V261.013Z" fill="#F04985" stroke="#F04985" stroke-width="10"/>
<path d="M259 261.013C260.478 239.513 288.565 232.013 293 232.013V230.013H259V261.013Z" fill="#F04985" stroke="#F04985" stroke-width="10"/>
</svg>
