<svg width="320" height="60" viewBox="0 0 320 60" fill="none" xmlns="http://www.w3.org/2000/svg">
<path fill-rule="evenodd" clip-rule="evenodd" d="M318.528 46.7056C315.948 50.3034 312.196 52.1024 307.272 52.1024C302.942 52.1024 299.467 50.7875 296.848 48.1577C294.229 45.5279 292.92 42.2145 292.92 38.2172C292.92 34.255 294.212 30.9503 296.796 28.303C299.38 25.6556 302.697 24.332 306.748 24.332C310.589 24.332 313.758 25.6644 316.255 28.3293C318.752 30.9941 320 34.29 320 38.2172C320 39.0938 319.913 40.023 319.738 41.0047H299.991C300.899 44.3007 303.361 45.9487 307.377 45.9487C309.961 45.9487 311.916 45.0721 313.243 43.3189L318.528 46.7056ZM299.913 35.7111H313.281C312.897 33.9326 312.102 32.6075 310.896 31.7357C309.69 30.8638 308.318 30.4279 306.781 30.4279C304.963 30.4279 303.46 30.89 302.272 31.8141C301.084 32.7382 300.297 34.0372 299.913 35.7111ZM249.149 24.9932V40.2008C249.149 43.1221 251.55 45.4904 254.512 45.4904C257.473 45.4904 259.874 43.1221 259.874 40.2008V24.9932H266.577V40.2015C266.577 46.7742 261.176 52.1024 254.513 52.1024C247.849 52.1024 242.448 46.7742 242.447 40.2015L242.446 24.9932H249.149ZM226.132 52.433C222.193 52.433 218.867 51.0918 216.153 48.4094C213.439 45.727 212.082 42.4399 212.082 38.5478C212.082 34.6557 213.439 31.3685 216.153 28.6862C218.867 26.0038 222.193 24.6626 226.132 24.6626C230.07 24.6626 233.405 26.0038 236.137 28.6862C238.869 31.3685 240.234 34.6557 240.234 38.5478C240.234 42.4399 238.869 45.727 236.137 48.4094C233.405 51.0918 230.07 52.433 226.132 52.433ZM226.132 45.6597C228.189 45.6597 229.909 44.9897 231.293 43.6498C232.676 42.3099 233.368 40.6092 233.368 38.5478C233.368 36.4864 232.676 34.7857 231.293 33.4458C229.909 32.1058 228.189 31.4359 226.132 31.4359C224.074 31.4359 222.363 32.1058 220.997 33.4458C219.631 34.7857 218.948 36.4864 218.948 38.5478C218.948 40.6092 219.631 42.3099 220.997 43.6498C222.363 44.9897 224.074 45.6597 226.132 45.6597ZM192.442 52.1024H185.739V20.8938L192.442 18.1829V26.2304C194.057 25.4386 195.878 24.9933 197.804 24.9932C204.468 24.9932 209.87 30.3217 209.87 36.8948V52.1024H203.167V36.8948C203.167 33.9734 200.766 31.6052 197.805 31.6052C194.843 31.6052 192.442 33.9734 192.442 36.8948V52.1024ZM284.392 33.0724C283.523 31.2415 282.075 30.3261 280.047 30.3261C279.142 30.3261 278.391 30.5236 277.793 30.9185C277.196 31.3133 276.897 31.8518 276.897 32.5339C276.897 33.2519 277.377 33.8352 278.337 34.2839C279.296 34.7327 280.464 35.1275 281.839 35.4686C283.215 35.8096 284.591 36.2404 285.967 36.7609C287.343 37.2815 288.51 38.152 289.47 39.3725C290.429 40.5931 290.909 42.1188 290.909 43.9496C290.909 46.7138 289.868 48.8407 287.786 50.3305C285.704 51.8203 283.107 52.5652 279.993 52.5652C274.587 52.5652 270.848 50.557 268.778 46.5406L274.671 42.7656C275.467 45.0983 277.241 46.3311 279.993 46.3311C282.491 46.3311 283.74 45.4932 283.74 43.9496C283.74 43.2316 283.261 42.6483 282.301 42.1995C281.342 41.7508 280.174 41.3469 278.798 40.988C277.422 40.629 276.047 40.1802 274.671 39.6418C273.295 39.1033 272.127 38.2507 271.168 37.084C270.208 35.9173 269.729 34.4545 269.729 32.6954C269.729 30.0389 270.715 27.9479 272.688 26.4222C274.662 24.8965 277.115 24.1337 280.047 24.1337C282.256 24.1337 284.265 24.6272 286.076 25.6145C287.748 26.5265 289.096 27.7985 290.119 29.4306L284.392 33.0724Z" fill="white"/>
<path fill-rule="evenodd" clip-rule="evenodd" d="M176.958 52.1023C175.67 52.1023 174.566 51.6486 173.646 50.741C172.726 49.8335 172.266 48.7445 172.266 47.4739C172.266 46.2034 172.726 45.1144 173.646 44.2068C174.566 43.2993 175.67 42.8456 176.958 42.8456C178.246 42.8456 179.35 43.2993 180.27 44.2068C181.191 45.1144 181.651 46.2034 181.651 47.4739C181.651 48.7445 181.191 49.8335 180.27 50.741C179.35 51.6486 178.246 52.1023 176.958 52.1023ZM168.178 31.6052H154.436C150.549 31.6052 147.398 34.7135 147.398 38.5478C147.398 42.3821 150.549 45.4904 154.436 45.4904C158.323 45.4904 161.475 42.3821 161.475 38.5478V35.2418H168.178V52.1023H161.475V50.1918C159.416 51.4051 157.009 52.1023 154.436 52.1023C146.847 52.1023 140.695 46.0337 140.695 38.5478C140.695 31.0618 146.847 24.9932 154.436 24.9932H168.178V31.6052ZM132.585 31.6052L132.592 43.5068C132.695 44.8748 133.853 45.9532 135.266 45.9532H138.416V52.1023H132.585C128.883 52.1023 125.882 49.142 125.882 45.4904V20.8938L132.585 18.1829V24.9932H138.416V31.6052H132.585ZM122.128 31.6052H108.387C104.5 31.6052 101.349 34.7135 101.349 38.5478C101.349 42.3821 104.5 45.4904 108.387 45.4904C112.274 45.4904 115.425 42.3821 115.425 38.5478V35.2418H122.128V52.1023H115.425V50.1918C113.366 51.4051 110.959 52.1023 108.387 52.1023C100.798 52.1023 94.6458 46.0337 94.6458 38.5478C94.6458 31.0618 100.798 24.9932 108.387 24.9932H122.128V31.6052ZM75.3412 52.1023H68.6382V25.013L75.3412 24.9932V26.2304C76.9563 25.4386 78.7769 24.9933 80.7029 24.9932C87.3671 24.9932 92.7689 30.3217 92.7689 36.8948V52.1023H86.0659V36.8948C86.0659 33.9734 83.6651 31.6052 80.7036 31.6052C77.742 31.6052 75.3412 33.9734 75.3412 36.8948V52.1023Z" fill="white"/>
<path fill-rule="evenodd" clip-rule="evenodd" d="M53.8914 28.5065L53.8919 59.9995L47.1887 60L32.1744 50.3814V27.605L34.4531 25.5884L38.877 29.6217V46.7911L47.1887 52.1155V31.5899L34.4531 20.8502L21.7175 31.5897L21.7175 59.9995L15.0144 60L6.44651e-05 50.3814L0 16.0892L19.4382 0L31.5523 10.0266L26.3869 14.3826L19.4384 8.6312L6.70271 19.1726V46.7911L15.0144 52.1155V28.5435L34.4531 12.4529L53.8914 28.5065Z" fill="#08EDDC"/>
</svg>
