<svg width="342" height="480" viewBox="0 0 342 480" fill="none" xmlns="http://www.w3.org/2000/svg">
<path fill-rule="evenodd" clip-rule="evenodd" d="M152.811 1.81866C151.038 2.85243 149.589 4.56986 149.589 5.6368C149.589 6.70374 161.678 82.899 129.797 124.36C105.863 175.036 24.6356 215.697 7.80062 266.079C2.23499 282.738 0.872576 289.797 0.15823 305.698C-3.31592 382.969 50.7626 454.474 128.54 475.45C151.031 481.517 190.736 481.517 213.226 475.45C277.547 458.103 325.393 407.492 338.846 342.571C344.243 316.531 342.755 292.744 334.065 266.079C321.483 227.472 292.834 174.223 251.639 112.876C231.256 82.5211 173.21 10.5716 166.303 3.6577C162.132 -0.516083 157.822 -1.10207 152.811 1.81866Z" fill="#B81C42"/>
<ellipse cx="106.783" cy="281.938" rx="44.1863" ry="44.2255" fill="white"/>
<ellipse cx="106.784" cy="281.938" rx="33.1397" ry="33.1692" fill="#70142B"/>
<ellipse cx="92.0546" cy="265.353" rx="11.0466" ry="11.0564" fill="white"/>
<ellipse cx="106.783" cy="298.523" rx="16.5699" ry="16.5846" fill="white"/>
<ellipse cx="125.194" cy="270.881" rx="5.52329" ry="5.5282" fill="white"/>
<ellipse cx="231.978" cy="281.938" rx="44.1863" ry="44.2255" fill="white"/>
<ellipse cx="231.978" cy="281.938" rx="33.1397" ry="33.1692" fill="#70142B"/>
<ellipse cx="217.249" cy="265.353" rx="11.0466" ry="11.0564" fill="white"/>
<ellipse cx="231.978" cy="298.523" rx="16.5699" ry="16.5846" fill="white"/>
<ellipse cx="250.389" cy="270.881" rx="5.52328" ry="5.5282" fill="white"/>
<path d="M215.408 361.175C215.408 370.461 210.656 379.366 202.197 385.932C193.738 392.498 182.265 396.187 170.301 396.187C158.338 396.187 146.865 392.498 138.406 385.932C129.947 379.366 125.195 370.461 125.195 361.175L170.301 361.175H215.408Z" fill="black"/>
<path d="M134.4 361.175H206.203C206.203 369.317 199.603 375.917 191.461 375.917H149.142C141 375.917 134.4 369.317 134.4 361.175Z" fill="white"/>
<path d="M33.1398 350.119C33.1398 344.013 38.0899 339.062 44.1962 339.062H93.8861C99.9924 339.062 104.943 344.013 104.943 350.119C104.943 356.225 99.9924 361.175 93.8861 361.175H44.1962C38.0899 361.175 33.1398 356.225 33.1398 350.119Z" fill="#EC99AE"/>
<path d="M233.819 350.119C233.819 344.013 238.769 339.062 244.876 339.062H294.566C300.672 339.062 305.622 344.013 305.622 350.119C305.622 356.225 300.672 361.175 294.566 361.175H244.876C238.769 361.175 233.819 356.225 233.819 350.119Z" fill="#EC99AE"/>
</svg>
