<svg width="58" height="82" viewBox="0 0 58 82" fill="none" xmlns="http://www.w3.org/2000/svg">
<path fill-rule="evenodd" clip-rule="evenodd" d="M25.9153 0.310688C25.6146 0.487291 25.3689 0.780684 25.3689 0.962953C25.3689 1.14522 27.419 14.1619 22.0124 21.2449C17.9534 29.9019 4.17797 36.8483 1.32291 45.4552C0.379033 48.301 0.147981 49.507 0.0268344 52.2234C-0.562349 65.4239 8.60887 77.6394 21.7991 81.2227C25.6134 82.2591 32.347 82.2591 36.1612 81.2227C47.0694 78.2592 55.1837 69.6133 57.4652 58.5225C58.3803 54.0741 58.128 50.0104 56.6543 45.4552C54.5205 38.8598 49.6618 29.7631 42.6756 19.2831C39.2189 14.0974 29.3749 1.80599 28.2034 0.624858C27.4961 -0.0881642 26.7652 -0.18827 25.9153 0.310688Z" fill="#B81C42"/>
<ellipse cx="18.1093" cy="48.1646" rx="7.49359" ry="7.5552" fill="white"/>
<ellipse cx="18.1094" cy="48.1644" rx="5.62019" ry="5.6664" fill="#70142B"/>
<ellipse cx="15.6117" cy="45.3312" rx="1.8734" ry="1.8888" fill="white"/>
<ellipse cx="18.1094" cy="50.9977" rx="2.81009" ry="2.8332" fill="white"/>
<ellipse cx="21.2316" cy="46.2759" rx="0.936698" ry="0.944401" fill="white"/>
<ellipse cx="39.3412" cy="48.1646" rx="7.49359" ry="7.5552" fill="white"/>
<ellipse cx="39.3414" cy="48.1644" rx="5.62019" ry="5.6664" fill="#70142B"/>
<ellipse cx="36.8436" cy="45.3312" rx="1.8734" ry="1.8888" fill="white"/>
<ellipse cx="39.3413" cy="50.9977" rx="2.8101" ry="2.8332" fill="white"/>
<ellipse cx="42.4636" cy="46.2759" rx="0.936697" ry="0.944401" fill="white"/>
<path d="M36.5313 61.7009C36.5313 63.2872 35.7254 64.8086 34.2908 65.9303C32.8562 67.052 30.9105 67.6821 28.8816 67.6821C26.8528 67.6821 24.9071 67.052 23.4725 65.9303C22.0379 64.8086 21.2319 63.2872 21.2319 61.7009L28.8816 61.7009H36.5313Z" fill="black"/>
<path d="M22.793 61.7007H34.97V61.7007C34.97 63.0916 33.8425 64.2191 32.4516 64.2191H25.3114C23.9205 64.2191 22.793 63.0916 22.793 61.7007V61.7007Z" fill="white"/>
<path d="M5.62012 59.8121C5.62012 58.769 6.46576 57.9233 7.50891 57.9233H15.9084C16.9515 57.9233 17.7972 58.769 17.7972 59.8121V59.8121C17.7972 60.8553 16.9515 61.7009 15.9084 61.7009H7.50892C6.46576 61.7009 5.62012 60.8553 5.62012 59.8121V59.8121Z" fill="#EC99AE"/>
<path d="M39.6533 59.8121C39.6533 58.769 40.499 57.9233 41.5421 57.9233H49.9416C50.9848 57.9233 51.8304 58.769 51.8304 59.8121V59.8121C51.8304 60.8553 50.9848 61.7009 49.9416 61.7009H41.5421C40.499 61.7009 39.6533 60.8553 39.6533 59.8121V59.8121Z" fill="#EC99AE"/>
</svg>
