<svg width="324" height="241" viewBox="0 0 324 241" fill="none" xmlns="http://www.w3.org/2000/svg">
<path fill-rule="evenodd" clip-rule="evenodd" d="M161.829 30.3615C140.641 7.00792 107.234 -4.64791 74.0842 1.72728C61.66 4.11628 42.271 13.5588 32.7296 21.8671C5.44214 45.6273 -5.89708 81.6984 2.95917 116.572C6.5112 130.56 12.8897 141.812 23.4688 152.755C38.7862 168.599 65.4287 187.765 100.121 207.899C115.575 216.868 147.392 233.722 157.244 238.256C158.894 240.162 160.951 240.623 163.614 239.704C168.63 237.974 205.985 218.283 223.151 208.321C257.843 188.187 284.486 169.02 299.803 153.177C310.382 142.234 316.761 130.982 320.313 116.994C329.169 82.1203 317.83 46.0492 290.542 22.2891C281.001 13.9807 261.612 4.5382 249.188 2.1492C216.238 -4.18748 183.034 7.28968 161.829 30.3615Z" fill="#C23A5B"/>
<circle cx="125" cy="110.938" r="24" fill="white"/>
<circle cx="125" cy="110.938" r="18" fill="#A62747"/>
<circle cx="117" cy="101.938" r="6" fill="white"/>
<circle cx="125" cy="119.938" r="9" fill="white"/>
<circle cx="135" cy="104.938" r="3" fill="white"/>
<circle cx="198" cy="110.938" r="24" fill="white"/>
<circle cx="198" cy="110.938" r="18" fill="#A62747"/>
<circle cx="190" cy="101.938" r="6" fill="white"/>
<circle cx="198" cy="119.938" r="9" fill="white"/>
<circle cx="208" cy="104.938" r="3" fill="white"/>
<path d="M186 153.938C186 158.978 183.419 163.81 178.824 167.374C174.229 170.937 167.998 172.938 161.5 172.938C155.002 172.938 148.771 170.937 144.176 167.374C139.581 163.81 137 158.978 137 153.938L161.5 153.938H186Z" fill="black"/>
<path d="M142 153.938H181C181 158.357 177.418 161.938 173 161.938H150C145.582 161.938 142 158.357 142 153.938Z" fill="white"/>
<path d="M77 147.938C77 144.625 79.6863 141.938 83 141.938H110C113.314 141.938 116 144.625 116 147.938C116 151.252 113.314 153.938 110 153.938H83C79.6863 153.938 77 151.252 77 147.938Z" fill="#EC99AE"/>
<path d="M206 147.938C206 144.625 208.686 141.938 212 141.938H239C242.314 141.938 245 144.625 245 147.938C245 151.252 242.314 153.938 239 153.938H212C208.686 153.938 206 151.252 206 147.938Z" fill="#EC99AE"/>
</svg>
