<svg width="186" height="261" viewBox="0 0 186 261" fill="none" xmlns="http://www.w3.org/2000/svg">
<path fill-rule="evenodd" clip-rule="evenodd" d="M83 0.986938C82.037 1.54794 81.25 2.47994 81.25 3.05894C81.25 3.63794 87.8159 44.987 70.5 67.487C57.5 94.987 13.3809 117.053 4.23694 144.394C1.21394 153.434 0.473944 157.265 0.0859435 165.894C-1.80106 207.827 27.572 246.631 69.817 258.014C82.033 261.306 103.599 261.306 115.815 258.014C150.751 248.6 176.739 221.135 184.046 185.904C186.977 171.773 186.169 158.864 181.449 144.394C174.615 123.443 159.054 94.546 136.679 61.255C125.608 44.782 94.08 5.73694 90.328 1.98494C88.063 -0.280064 85.722 -0.598062 83 0.986938Z" fill="#B81C42"/>
<circle cx="58" cy="153" r="24" fill="white"/>
<circle cx="58" cy="153" r="18" fill="#70142B"/>
<circle cx="50" cy="144" r="6" fill="white"/>
<circle cx="58" cy="162" r="9" fill="white"/>
<circle cx="68" cy="147" r="3" fill="white"/>
<circle cx="126" cy="153" r="24" fill="white"/>
<circle cx="126" cy="153" r="18" fill="#70142B"/>
<circle cx="118" cy="144" r="6" fill="white"/>
<circle cx="126" cy="162" r="9" fill="white"/>
<circle cx="136" cy="147" r="3" fill="white"/>
<path d="M117 196C117 201.039 114.419 205.872 109.824 209.435C105.229 212.998 98.9978 215 92.5 215C86.0022 215 79.7705 212.998 75.1759 209.435C70.5812 205.872 68 201.039 68 196L92.5 196H117Z" fill="black"/>
<path d="M73 196H112C112 200.418 108.418 204 104 204H81C76.5817 204 73 200.418 73 196Z" fill="white"/>
<path d="M18 190C18 186.686 20.6863 184 24 184H51C54.3137 184 57 186.686 57 190C57 193.314 54.3137 196 51 196H24C20.6863 196 18 193.314 18 190Z" fill="#EC99AE"/>
<path d="M127 190C127 186.686 129.686 184 133 184H160C163.314 184 166 186.686 166 190C166 193.314 163.314 196 160 196H133C129.686 196 127 193.314 127 190Z" fill="#EC99AE"/>
</svg>
