<svg width="342" height="480" viewBox="0 0 342 480" fill="none" xmlns="http://www.w3.org/2000/svg">
<path fill-rule="evenodd" clip-rule="evenodd" d="M149.589 474.363C149.589 475.43 151.038 477.148 152.811 478.181C157.822 481.102 162.133 480.516 166.303 476.342C173.21 469.428 231.256 397.479 251.639 367.124C292.834 305.777 321.483 252.528 334.065 213.921C342.755 187.256 344.243 163.469 338.846 137.429C325.393 72.5077 277.547 21.8972 213.227 4.54976C190.736 -1.51651 151.031 -1.51651 128.54 4.54976C50.7627 25.5256 -3.31589 97.0308 0.158255 174.302C0.8726 190.203 2.23501 197.262 7.80065 213.921C16.6148 240.299 43.0801 264.013 69.7324 287.894C93.9858 309.625 118.394 331.496 129.797 355.64C159.851 394.725 150.83 464.677 149.698 473.46C149.629 473.994 149.589 474.302 149.589 474.363ZM171 262C230.094 262 278 214.094 278 155C278 95.9055 230.094 48 171 48C111.906 48 64 95.9055 64 155C64 214.094 111.906 262 171 262Z" fill="#B81C42"/>
<path fill-rule="evenodd" clip-rule="evenodd" d="M164.121 70.6442C163.493 71.0103 162.979 71.6186 162.979 71.9964C162.979 72.3743 167.261 99.3601 155.97 114.044C147.493 131.992 118.725 146.393 112.763 164.236C110.792 170.136 110.309 172.636 110.056 178.268C108.826 205.635 127.978 230.96 155.524 238.389C163.49 240.537 177.552 240.537 185.518 238.389C208.298 232.245 225.243 214.32 230.008 191.327C231.919 182.105 231.392 173.68 228.315 164.236C223.859 150.563 213.712 131.704 199.122 109.977C191.903 99.2263 171.345 73.7442 168.899 71.2955C167.422 69.8173 165.895 69.6097 164.121 70.6442Z" fill="#B81C42"/>
</svg>